<svg xmlns="http://www.w3.org/2000/svg" enable-background="new 0 0 128 128" viewBox="0 0 128 128"><path fill="#34a853" d="M103.2 64c0-21.6-17.6-39.2-39.2-39.2S24.8 42.4 24.8 64s17.6 39.2 39.2 39.2S103.2 85.6 103.2 64zM77.6 82.7c-2.7 2.4-6.3 3.7-10.8 4v4.8h-4.2v-4.8c-6-.6-11.5-3-16.3-7.2l4.8-5.7c3.7 3.2 7.5 5.1 11.4 5.7V66.5c-5-1.2-8.6-2.8-10.9-4.7-2.3-1.9-3.5-4.8-3.5-8.6 0-3.8 1.3-6.9 4-9.3 2.7-2.4 6.1-3.7 10.4-4v-3.3h4.2V40c4.8.4 9.4 2 13.7 5L76.2 51c-2.9-2.1-6.1-3.3-9.4-3.8v12.4H67c5.1 1.2 8.8 2.8 11.2 4.8 2.4 2 3.6 5 3.6 8.8C81.7 77.1 80.3 80.2 77.6 82.7zM106.6 17.6C96 7.8 82 1.6 66.7 1v18.6c10.3.6 19.6 4.7 26.8 11.1L106.6 17.6z" class="color303c42 svgShape"/><path fill="#34a853" d="M66.8 67.7v11.9c2.1-.2 3.8-.8 5-1.9 1.2-1 1.9-2.3 1.9-3.8 0-1.5-.5-2.8-1.5-3.7C71.2 69.3 69.4 68.5 66.8 67.7zM19.6 66.7H1C1.6 82 7.8 96 17.6 106.6l13.1-13.1C24.3 86.3 20.2 76.9 19.6 66.7zM56.2 52.4c0 1.5.4 2.6 1.3 3.5.9.9 2.6 1.7 5 2.5V47c-2 .2-3.5.8-4.7 1.8C56.8 49.7 56.2 51 56.2 52.4zM30.7 34.5L17.6 21.4C7.8 32 1.6 46 1 61.3h18.6C20.2 51.1 24.3 41.7 30.7 34.5zM61.3 19.6V1C46 1.6 32 7.8 21.4 17.6l13.1 13.1C41.7 24.3 51.1 20.2 61.3 19.6zM108.4 61.3H127c-.6-15.4-6.8-29.3-16.6-40L97.3 34.5C103.7 41.7 107.8 51.1 108.4 61.3zM97.3 93.5l13.1 13.1c9.8-10.6 15.9-24.6 16.6-40h-18.6C107.8 76.9 103.7 86.3 97.3 93.5zM21.4 110.4c10.6 9.8 24.6 15.9 40 16.6v-18.6c-10.3-.6-19.6-4.7-26.8-11.1L21.4 110.4zM66.7 108.4V127c15.4-.6 29.3-6.8 40-16.6L93.5 97.3C86.3 103.7 76.9 107.8 66.7 108.4z" class="color303c42 svgShape"/></svg>